<?xml version="1.0" standalone="no"?><!DOCTYPE svg PUBLIC "-//W3C//DTD SVG 1.1//EN" "http://www.w3.org/Graphics/SVG/1.1/DTD/svg11.dtd"><svg t="1610007900973" class="icon" viewBox="0 0 1024 1024" version="1.1" xmlns="http://www.w3.org/2000/svg" p-id="5402" width="16" height="16" xmlns:xlink="http://www.w3.org/1999/xlink"><defs><style type="text/css"></style></defs><path d="M890.048 181.968c-112.464-112.464-294.816-112.464-407.296 0L109.392 555.312c-81.232 81.232-81.232 212.928 0 294.16 81.232 81.232 212.928 81.232 294.16 0l350.72-350.72a128 128 0 0 0-181.024-181.024L279.104 611.888a48 48 0 1 0 67.888 67.888l294.16-294.16a32 32 0 1 1 45.248 45.248l-350.72 350.72a112 112 0 0 1-158.384-158.4l373.344-373.344c74.976-74.976 196.544-74.976 271.536 0 74.976 74.976 74.976 196.544 0 271.536l-316.8 316.784a48 48 0 1 0 67.888 67.888l316.784-316.784c112.464-112.48 112.464-294.832 0-407.296z" fill="#198DFF" p-id="5403"></path></svg>